<?xml version="1.0" standalone="no"?><!DOCTYPE svg PUBLIC "-//W3C//DTD SVG 1.1//EN" "http://www.w3.org/Graphics/SVG/1.1/DTD/svg11.dtd"><svg t="1721354234969" class="icon" viewBox="0 0 1076 1024" version="1.1" xmlns="http://www.w3.org/2000/svg" p-id="43436" xmlns:xlink="http://www.w3.org/1999/xlink" width="210.15625" height="200"><path d="M319.878876 118.471335L229.571183 28.447435a16.568259 16.568259 0 0 1-4.417812-16.09137A16.632625 16.632625 0 0 1 236.990768 0.553777a16.69699 16.69699 0 0 1 16.141106 4.409035l70.251995 70.020864C505.350929-12.559226 730.480894 18.897939 881.426719 169.352246c150.945825 150.457233 182.50539 374.852846 94.675768 556.228914l66.322775 66.109198a16.568259 16.568259 0 0 1 4.420738 16.09137 16.632625 16.632625 0 0 1-11.834471 11.799362 16.69699 16.69699 0 0 1-16.144032-4.406109l-86.396027-86.112234a27.826367 27.826367 0 0 0-26.954507-7.440064 27.721041 27.721041 0 0 0-19.777757 19.713391 27.618642 27.618642 0 0 0 7.472247 26.866736l78.52881 78.285976a27.618642 27.618642 0 0 1 7.571721 26.916473 27.721041 27.721041 0 0 1-19.830419 19.766054 27.826367 27.826367 0 0 1-27.004244-7.548316l-59.002664-58.806642-19.537849-19.467631a44.526283 44.526283 0 0 0-43.016619-11.676483 44.353666 44.353666 0 0 0-31.524457 31.422056 44.183976 44.183976 0 0 0 11.708666 42.876186l66.758705 66.539277a44.183976 44.183976 0 0 1 11.714517 42.876186 44.353666 44.353666 0 0 1-31.521531 31.422057 44.526283 44.526283 0 0 1-43.019545-11.673558l-46.694229-46.539167c-181.964135 87.545828-407.0941 56.088663-558.039925-94.365643C39.350713 707.775328 7.791149 483.376789 95.623696 302.00072L45.003173 251.546962c-17.168029-17.323091-17.083183-45.216749 0.193096-62.434514s45.260634-17.302611 62.639314-0.187245l51.04475 50.880911a44.529209 44.529209 0 0 0 42.91422 11.462906 44.353666 44.353666 0 0 0 31.416206-31.313805 44.183976 44.183976 0 0 0-11.498016-42.773787l-9.719187-9.687004-53.113223-52.934755A27.615716 27.615716 0 0 1 151.595331 87.774852a27.721041 27.721041 0 0 1 19.68706-19.619768 27.829293 27.829293 0 0 1 26.866736 7.261597l64.701935 64.485432 17.764872 17.709284a27.826367 27.826367 0 0 0 26.957433 7.440064 27.721041 27.721041 0 0 0 19.77483-19.716316 27.618642 27.618642 0 0 0-7.469321-26.866736z" fill="#F0F3ED" p-id="43437"></path><path d="M371.836446 1015.222889c3.522547 0 5.377443 1.313641 5.564688 3.937997l0.014629 0.450559c0 2.925704-1.860747 4.388555-5.579317 4.388555H143.087385c-3.522547 0-5.377443-1.313641-5.564688-3.937997L137.508069 1019.611445c0-2.925704 1.860747-4.388555 5.579316-4.388556h228.749061z m503.244422 0c3.510844 0 5.354038 1.313641 5.541283 3.937997l0.014628 0.450559c0 2.925704-1.85197 4.388555-5.555911 4.388555H502.928446c-3.510844 0-5.354038-1.313641-5.541282-3.937997L497.36961 1019.611445c0-2.925704 1.85197-4.388555 5.555911-4.388556H875.077943z m-313.041506-58.514071c3.504993 0 5.348186 1.313641 5.529579 3.937997l0.017555 0.450558c0 2.925704-1.849045 4.388555-5.547134 4.388555h-255.144759c-3.504993 0-5.348186-1.313641-5.529579-3.937997L301.347469 961.097373c0-2.925704 1.849045-4.388555 5.547134-4.388555h255.144759z m242.812917 0c3.516696 0 5.36574 1.313641 5.552986 3.937997l0.014628 0.450558c0 2.925704-1.854896 4.388555-5.567614 4.388555h-161.481283c-3.516696 0-5.36574-1.313641-5.552986-3.937997L637.803382 961.097373c0-2.925704 1.854896-4.388555 5.567614-4.388555h161.481283zM605.620642 956.708818c3.706866 0 5.652459 1.319492 5.836779 3.961402l0.014628 0.427153c0 2.925704-1.951444 4.388555-5.851407 4.388555h-11.702814c-3.706866 0-5.652459-1.319492-5.836779-3.961402L588.066421 961.097373c0-2.925704 1.951444-4.388555 5.851407-4.388555h11.702814z m272.391781-61.439776c3.504993 0 5.351112 1.313641 5.535431 3.937997l0.014629 0.450559c0 2.925704-1.849045 4.388555-5.55006 4.388555H134.281017c-3.504993 0-5.351112-1.313641-5.535431-3.937997L128.730958 899.657598c0-2.925704 1.849045-4.388555 5.550059-4.388556h743.731406z m67.314588 0c3.490364 0 5.327706 1.313641 5.512026 3.937997l0.014628 0.450559c0 2.925704-1.843193 4.388555-5.526654 4.388555H906.646284c-3.490364 0-5.327706-1.313641-5.512025-3.937997L901.116704 899.657598c0-2.925704 1.843193-4.388555 5.526655-4.388556h38.683652z" fill="#C8C8CC" p-id="43438"></path><path d="M292.570359 867.840571a16.454157 16.454157 0 1 0 32.908314 0.005852 16.454157 16.454157 0 0 0-32.908314-0.005852z" fill="#C8C8CC" p-id="43439"></path><path d="M966.945035 552.09864a26.92525 26.92525 0 1 0 40.386412-23.323709 26.922324 26.922324 0 0 0-40.386412 23.323709z" fill="#FFFFFF" p-id="43440"></path><path d="M978.208994 524.974442a31.31088 31.31088 0 0 1 46.972171 27.121272 31.313805 31.313805 0 1 1-46.969245-27.121272z m26.928176 7.600978A22.533769 22.533769 0 0 0 971.333591 552.09864a22.536695 22.536695 0 1 0 33.803579-19.52322z" fill="#C8C8CC" p-id="43441"></path><path d="M78.993997 499.304319c0 19.827493 16.07089 35.904234 35.898383 35.904234 19.827493 0 35.898383-16.076741 35.898383-35.90716a35.892532 35.892532 0 1 0-71.796766 0z" fill="#FFFFFF" p-id="43442"></path><path d="M94.748911 464.406527a40.281087 40.281087 0 0 1 60.430407 34.894866c0 22.252901-18.036963 40.295715-40.286938 40.295716-22.249976 0-40.286938-18.042814-40.286939-40.295716 0-14.394462 7.677046-27.697636 20.14347-34.894866z m35.898383 7.600977a31.503976 31.503976 0 0 0-47.264742 27.296815c0 17.405011 14.107743 31.515679 31.509828 31.515679 17.402085 0 31.509828-14.110668 31.509827-31.518605 0-11.261033-6.006469-21.664835-15.754913-27.296814z" fill="#C8C8CC" p-id="43443"></path><path d="M45.348406 655.361348a7.314259 7.314259 0 0 1 7.314259 7.314259v27.794184h27.794184a7.314259 7.314259 0 0 1 7.314259 7.314259v2.925704a7.314259 7.314259 0 0 1-7.314259 7.314259H52.662665v27.794184a7.314259 7.314259 0 0 1-7.314259 7.314259h-2.925704a7.314259 7.314259 0 0 1-7.314259-7.314259V708.024013H7.314259a7.314259 7.314259 0 0 1-7.314259-7.314259v-2.925704a7.314259 7.314259 0 0 1 7.314259-7.314259H35.108443v-27.794184a7.314259 7.314259 0 0 1 7.314259-7.314259h2.925704zM1043.013328 207.7287a5.851407 5.851407 0 0 1 5.851408 5.851407v19.017073h19.017073a5.851407 5.851407 0 0 1 0 11.702814h-19.017073V263.317068a5.851407 5.851407 0 0 1-11.702815 0v-19.017074H1018.144848a5.851407 5.851407 0 0 1 0-11.702814h19.017073V213.580107a5.851407 5.851407 0 0 1 5.851407-5.851407z" fill="#C8C8CC" p-id="43444"></path><path d="M548.853216 111.180481C644.836773 111.180481 722.648786 189.326024 722.648786 285.71918V368.642397h110.205402c26.389846 0 47.782591 21.383968 47.782591 47.759185v346.262871c0 26.375218-21.392745 47.759185-47.782591 47.759185H243.804731C217.414885 810.423638 196.02214 789.039671 196.02214 762.664453V416.401582C196.02214 390.02929 217.414885 368.642397 243.804731 368.642397H351.08443V285.71918C351.08443 189.326024 428.896443 111.180481 524.88 111.180481h23.973216z m0 60.184649h-23.973216c-62.885073 0-113.868384 51.199813-113.868383 114.35405v81.25264h251.707056V285.71918c0-63.154238-50.980385-114.35405-113.868383-114.35405z" fill="#FFFFFF" p-id="43445"></path><path d="M548.853216 105.329074c98.230498 0 178.03784 79.160762 179.623571 177.408814l0.023406 2.984218V362.79099h104.353995c28.964466 0 52.569042 22.952145 53.59889 51.656222l0.026331 0.980111 0.008778 0.974259v346.262871c0 29.283367-23.487548 53.08104-52.656814 53.601815l-0.977185 0.008777H243.804731c-29.29507 0-53.104446-23.478771-53.625221-52.636333l-0.008777-0.974259V416.401582c0-29.283367 23.487548-53.08104 52.656813-53.601815l0.977185-0.008777H345.233023V285.71918c0-97.639506 77.256129-177.168906 173.745833-180.293558l2.931555-0.073142 2.969589-0.023406h23.973216z m0 11.702814h-23.973216c-91.820281 0-166.437426 74.014449-167.920757 165.899096l-0.023406 2.788196V374.493804H243.804731c-22.849745 0-41.427963 18.268093-41.922406 40.986181l-0.008778 0.921597v346.262871c0 22.835116 18.273945 41.407483 41.006662 41.896075l0.924522 0.011703h589.049457c22.849745 0 41.427963-18.268093 41.922407-40.986181l0.008777-0.921597V416.401582c0-22.835116-18.273945-41.407483-41.006661-41.896075l-0.924523-0.011703H716.797379V285.71918c0-92.235731-73.698473-167.174703-165.167671-168.666812l-2.779418-0.02048z m0 48.481834c65.462618 0 118.643132 52.750436 119.702236 118.218905l0.014629 1.989479v87.098195h-263.406946v-87.098195c0-65.72008 52.528082-119.128799 117.736164-120.190829l1.980701-0.017555h23.973216z m0 11.702815h-23.973216c-59.052401 0-107.045643 47.607049-107.999422 106.709187l-0.014628 1.793456-0.002926 75.398307h240.004242v-75.395381c0-59.333269-47.40225-107.53131-106.229371-108.490941l-1.784679-0.014628z" fill="#C8C8CC" p-id="43446"></path><path d="M756.118835 751.909567H329.317196C315.522503 751.909567 304.273173 742.605829 304.273173 731.183882V456.659263C304.273173 445.240242 315.519578 435.933579 329.317196 435.933579h426.801639c13.797618 0 25.044023 9.303737 25.044022 20.725684v274.524619c0 11.419021-11.246405 20.725684-25.044022 20.725685z" fill="#FFFFFF" p-id="43447"></path><path d="M327.678802 555.887426m10.239962 0l143.359476 0q10.239963 0 10.239962 10.239963l0 0q0 10.239963-10.239962 10.239962l-143.359476 0q-10.239963 0-10.239962-10.239962l0 0q0-10.239963 10.239962-10.239963Z" fill="#F0F3ED" p-id="43448"></path><path d="M582.215014 532.481798m11.702814 0l105.325329 0q11.702814 0 11.702814 11.702814l0 26.331332q0 11.702814-11.702814 11.702815l-105.325329 0q-11.702814 0-11.702814-11.702815l0-26.331332q0-11.702814 11.702814-11.702814Z" fill="#F0F3ED" p-id="43449"></path><path d="M582.215014 649.509941m11.702814 0l105.325329 0q11.702814 0 11.702814 11.702814l0 49.736961q0 11.702814-11.702814 11.702815l-105.325329 0q-11.702814 0-11.702814-11.702815l0-49.736961q0-11.702814 11.702814-11.702814Z" fill="#F0F3ED" p-id="43450"></path><path d="M327.678802 602.698684m10.239962 0l380.341466 0q10.239963 0 10.239963 10.239962l0 0q0 10.239963-10.239963 10.239963l-380.341466 0q-10.239963 0-10.239962-10.239963l0 0q0-10.239963 10.239962-10.239962Z" fill="#F0F3ED" p-id="43451"></path><path d="M327.678802 646.584237m10.239962 0l193.096437 0q10.239963 0 10.239962 10.239963l0 0q0 10.239963-10.239962 10.239963l-193.096437 0q-10.239963 0-10.239962-10.239963l0 0q0-10.239963 10.239962-10.239963Z" fill="#F0F3ED" p-id="43452"></path><path d="M327.678802 699.246902m10.239962 0l193.096437 0q10.239963 0 10.239962 10.239963l0 0q0 10.239963-10.239962 10.239962l-193.096437 0q-10.239963 0-10.239962-10.239962l0 0q0-10.239963 10.239962-10.239963Z" fill="#F0F3ED" p-id="43453"></path><path d="M781.162857 506.150465H295.496062V442.0483C295.496062 435.21093 302.263215 430.082172 310.071917 430.082172h456.515085C774.91648 430.082172 781.162857 435.638083 781.162857 442.0483V506.150465z" fill="#C3D2B8" p-id="43454"></path><path d="M336.455912 473.967726c0 4.847891 4.584578 8.777111 10.239963 8.777111s10.239963-3.92922 10.239962-8.777111-4.584578-8.777111-10.239962-8.777111-10.239963 3.92922-10.239963 8.777111zM377.415763 473.967726c0 4.847891 4.584578 8.777111 10.239962 8.777111s10.239963-3.92922 10.239963-8.777111-4.584578-8.777111-10.239963-8.777111-10.239963 3.92922-10.239962 8.777111zM415.449909 473.967726c0 3.136354 1.951444 6.032801 5.119981 7.600978a11.732071 11.732071 0 0 0 10.239963 0C433.97839 480.000527 435.929834 477.10408 435.929834 473.967726c0-3.136354-1.951444-6.032801-5.119981-7.600978a11.732071 11.732071 0 0 0-10.239963 0C417.401354 467.934925 415.449909 470.831372 415.449909 473.967726z" fill="#FFFFFF" p-id="43455"></path><path d="M748.05267 424.230765H328.60625C308.822642 424.230765 292.570359 437.969869 292.570359 454.681488v275.554466C292.570359 746.947573 308.822642 760.686677 328.60625 760.686677h419.44642c19.783608 0 36.035891-13.739104 36.035891-30.450723V454.681488C784.088561 437.969869 767.836278 424.230765 748.05267 424.230765zM328.60625 432.4871h419.44642c14.376907 0 26.255264 10.038089 26.255264 22.194388v275.554466c0 12.156298-11.878357 22.194387-26.255264 22.194388H328.60625c-14.376907 0-26.255264-10.038089-26.255264-22.194388V454.681488c0-12.156298 11.878357-22.194387 26.255264-22.194388z" fill="#C8C8CC" p-id="43456"></path><path d="M749.971932 503.224762c2.68287 0 4.859594 1.310715 4.859593 2.925703 0 1.541846-1.983627 2.808675-4.496806 2.916927l-0.362787 0.008777H329.612692C326.929822 509.076169 324.753098 507.765454 324.753098 506.150465c0-1.541846 1.983627-2.808675 4.496806-2.916926l0.362788-0.008777h420.35924z" fill="#C8C8CC" p-id="43457"></path></svg>