<?xml version="1.0" standalone="no"?><!DOCTYPE svg PUBLIC "-//W3C//DTD SVG 1.1//EN" "http://www.w3.org/Graphics/SVG/1.1/DTD/svg11.dtd"><svg t="1716538320936" class="icon" viewBox="0 0 1536 1024" version="1.1" xmlns="http://www.w3.org/2000/svg" p-id="4622" xmlns:xlink="http://www.w3.org/1999/xlink" width="384" height="256"><path d="M396.878102 841.30278h670.225356a10.24 10.24 0 0 1 0 20.497356H396.878102a10.24 10.24 0 0 1 0-20.497356z m-219.77817 61.492067h302.895729a10.24 10.24 0 0 1 0 20.488678H177.099932a10.24 10.24 0 1 1 0-20.488678z m413.383593 0h754.158644a10.24 10.24 0 0 1 0 20.488678H590.483525a10.24 10.24 0 1 1 0-20.488678z m-510.811118 0h44.50061a10.24 10.24 0 0 1 0 20.488678H79.663729a10.24 10.24 0 1 1 0-20.488678z m1023.626847-61.492067h30.225356a10.24 10.24 0 0 1 0 20.497356h-30.225356a10.24 10.24 0 0 1 0-20.497356z m303.494509 61.492067h54.367457a10.24 10.24 0 0 1 0 20.488678h-54.367457a10.24 10.24 0 1 1 0-20.488678z m-334.89139 98.373424h110.644068a10.24 10.24 0 0 1 0 20.497356h-110.644068a10.24 10.24 0 1 1 0-20.497356z m-47.095322 0h15.967457a10.24 10.24 0 0 1 0 20.497356h-15.967457a10.24 10.24 0 1 1 0-20.497356z m-402.917966 0h174.808949a10.24 10.24 0 0 1 0 20.497356H621.880407a10.24 10.24 0 1 1 0-20.497356z m262.491118 0h110.652746a10.24 10.24 0 1 1 0 20.497356h-110.644068a10.24 10.24 0 1 1 0-20.497356zM328.851525 841.30278h30.225356a10.24 10.24 0 1 1 0 20.497356h-30.225356a10.24 10.24 0 0 1 0-20.497356z m198.838238 61.492067h23.985898a10.24 10.24 0 0 1 0 20.488678h-23.985898a10.24 10.24 0 1 1 0-20.488678zM626.349559 573.873898v112.154034c0 3.349695 0.451254 5.649356 1.379797 6.881627 0.919864 1.240949 2.620746 1.865763 5.111322 1.865763h6.812203c5.085288-0.08678 7.72339 2.976542 7.949017 9.242034v32.958915c0 5.727458-2.915797 8.964339-8.764745 9.745356-3.792271 0.416542-6.161356 1.128136-7.124611 2.100068-0.98061 0.954576-1.475254 3.306305-1.475254 6.968407V774.942373c0.433898 6.820881-2.690169 10.396203-9.415593 10.734644h-55.486915c-3.887729 0-6.447729-0.685559-7.636611-2.039322-1.188881-1.353763-1.778983-4.252203-1.778983-8.695322v-16.705085c0-4.538576-0.867797-7.697356-2.603389-9.502373-1.718237-1.770305-4.746847-2.655458-9.077153-2.655457h-63.288407c-7.584542 0-12.904136-1.605424-15.984813-4.790238-3.089356-3.193492-4.616678-8.686644-4.616678-16.488135 0-10.378847 1.232271-18.484068 3.722847-24.324339 3.037288-7.25478 11.741288-19.482034 26.120678-36.681763l41.220339-49.490441c20.670915-24.784271 35.918102-40.578169 45.767593-47.381695 4.434441-3.037288 9.806102-5.510508 16.141017-7.46305 6.334915-1.96122 12.24461-2.924475 17.781153-2.924475 5.406373 0 9.30278 1.353763 11.680542 4.05261 2.386441 2.707525 3.557966 7.141966 3.557966 13.303322z m-68.156745 84.228339v-7.957695c0-9.719322-2.707525-14.605017-8.131255-14.605017-4.087322 0-7.940339 2.221559-11.498305 6.664678l-24.992542 30.667933c-7.25478 8.981695-10.873492 15.412068-10.873492 19.317152 0 2.811661 1.509966 4.625356 4.547255 5.432407 3.02861 0.807051 10.552407 1.388475 22.545356 1.700881l12.826033 0.17356c5.510508 0 9.242034-0.633492 11.194577-1.874441 1.952542-1.258305 3.089356-3.705492 3.41044-7.376271 0.650847-5.953085 0.971932-16.679051 0.971933-32.143187z m496.414372-84.228339v112.154034c0 3.349695 0.451254 5.649356 1.388475 6.881627 0.911186 1.240949 2.612068 1.865763 5.102644 1.865763h6.820881c5.07661-0.08678 7.72339 2.976542 7.957695 9.242034v32.958915c0 5.727458-2.933153 8.964339-8.773423 9.745356-3.792271 0.416542-6.161356 1.128136-7.150644 2.100068-0.954576 0.954576-1.440542 3.306305-1.440543 6.968407V774.942373c0.416542 6.820881-2.716203 10.396203-9.415593 10.734644h-55.504271c-3.905085 0-6.447729-0.685559-7.619254-2.039322-1.206237-1.353763-1.805017-4.252203-1.805017-8.695322v-16.705085c0-4.538576-0.859119-7.697356-2.586034-9.502373-1.735593-1.770305-4.764203-2.655458-9.085831-2.655457h-63.288407c-7.575864 0-12.895458-1.605424-15.984813-4.790238-3.098034-3.193492-4.625356-8.686644-4.625356-16.488135 0-10.378847 1.232271-18.484068 3.731525-24.324339 3.037288-7.25478 11.741288-19.482034 26.138034-36.681763l41.202983-49.490441c20.670915-24.784271 35.909424-40.578169 45.767594-47.381695 4.443119-3.037288 9.823458-5.510508 16.141016-7.46305 6.334915-1.96122 12.24461-2.924475 17.781153-2.924475 5.406373 0 9.30278 1.353763 11.671864 4.05261 2.377763 2.707525 3.575322 7.141966 3.575322 13.303322z m-68.148067 84.228339v-7.957695c0-9.719322-2.716203-14.605017-8.131255-14.605017-4.113356 0-7.940339 2.221559-11.506983 6.664678l-24.992542 30.667933c-7.246102 8.981695-10.882169 15.412068-10.88217 19.317152 0 2.811661 1.518644 4.625356 4.555933 5.432407 3.02861 0.807051 10.535051 1.388475 22.554034 1.700881l12.808678 0.17356c5.536542 0 9.242034-0.633492 11.211932-1.874441 1.935186-1.258305 3.080678-3.705492 3.401762-7.376271 0.650847-5.953085 0.98061-16.679051 0.980611-32.143187z m-118.167865-36.968135a121.543593 121.543593 0 0 1 12.192543 53.543051c0 34.607729-13.22522 62.915254-39.666983 84.992-20.263051 16.748475-43.329085 25.114034-69.267526 25.114033-28.637288 0-53.022373-9.346169-73.146576-28.012474-23.864407-22.085424-35.787932-51.529763-35.787932-88.445831 0-35.996203 10.899525-64.216949 32.68122-84.722983 19.247729-18.223729 43.277017-27.309559 72.174644-27.309559 17.685695 0 34.703186 4.304271 51.095864 12.964881 22.189559 11.611119 38.755797 28.880271 49.724746 51.876882zM771.549288 756.501695c21.755661 0 41.098847-6.317559 58.098983-18.874576 22.189559-16.670373 33.262644-37.940068 33.262644-63.956611 0-14.231864-3.393085-27.700068-10.222644-40.300474-9.189966-17.260475-23.08339-30.286102-41.706305-38.99878a98.894102 98.894102 0 0 0-42.869152-9.77139c-24.211525 0-44.387797 6.838237-60.520136 20.52339-18.275797 15.429424-27.405017 36.655729-27.405017 63.757017 0 27.743458 9.997017 49.976407 30.008407 66.499254 16.887322 14.066983 37.33261 21.122169 61.35322 21.12217z m-50.340881-117.29139l5.258847 1.96122a4.13939 4.13939 0 0 0 0.928543 0.234306c0.364475 0 0.55539-0.390508 0.650847-1.145492l0.026034-0.234305-0.234305-5.632v-0.433898c0-1.683525 0.242983-2.724881 0.746305-3.15878 0.503322-0.399186 1.735593-0.624814 3.688136-0.624814 1.674847 0 2.802983 0.147525 3.358372 0.373153 0.546712 0.269017 0.893831 0.781017 1.006645 1.631458 0.08678 0.720271 0.138847 1.457898 0.104135 2.212881l-0.199593 5.632c0 0.911186 0.234305 1.379797 0.694237 1.379797a3.905085 3.905085 0 0 0 0.893831-0.234306l5.241491-1.96122a8.938305 8.938305 0 0 1 2.698848-0.642169c0.55539 0 0.997966 0.147525 1.336406 0.512 0.321085 0.347119 0.668203 1.024 1.041356 2.030644 0.668203 1.770305 1.006644 3.132746 1.076068 4.113356 0.04339 0.989288-1.076068 1.822373-3.384407 2.464542l-5.41505 1.527322c-0.746305 0.225627-1.136814 0.520678-1.136814 0.911186 0 0.173559 0.173559 0.494644 0.538034 0.954577l3.49722 4.391051c1.024 1.353763 1.562034 2.343051 1.562034 3.011254 0 0.772339-0.919864 1.761627-2.690169 3.080678-1.588068 1.084746-2.681492 1.631458-3.271594 1.631457-0.763661 0-1.709559-0.807051-2.829017-2.490576l-3.106711-4.677424c-0.381831-0.529356-0.728949-0.815729-1.015322-0.815728-0.260339 0-0.590102 0.286373-0.980611 0.815728l-3.089356 4.677424c-1.119458 1.683525-2.048 2.490576-2.85505 2.490576-0.59878 0-1.683525-0.546712-3.24556-1.631457-1.778983-1.275661-2.698847-2.282305-2.698847-3.080678 0-0.650847 0.546712-1.648814 1.605424-3.011254l3.45383-4.399729c0.347119-0.451254 0.529356-0.772339 0.529356-0.954577 0-0.373153-0.399186-0.676881-1.145492-0.902508l-5.362983-1.527322c-2.256271-0.642169-3.375729-1.440542-3.375728-2.386441 0-1.041356 0.399186-2.568678 1.232271-4.686101 0.529356-1.362441 1.275661-2.021966 2.221559-2.021967 0.624814 0 1.518644 0.208271 2.64678 0.616136z m78.474847 0l5.25017 1.96122a4.312949 4.312949 0 0 0 0.919864 0.234306c0.373153 0 0.581424-0.390508 0.676881-1.145492l0.017356-0.234305-0.242983-5.632v-0.433898c0-1.683525 0.260339-2.724881 0.746305-3.15878 0.520678-0.399186 1.744271-0.624814 3.705492-0.624814 1.674847 0 2.785627 0.147525 3.341017 0.373153 0.55539 0.269017 0.893831 0.781017 0.997966 1.631458 0.104136 0.720271 0.156203 1.457898 0.138847 2.212881l-0.216949 5.632c0 0.911186 0.234305 1.379797 0.694238 1.379797 0.164881 0 0.451254-0.08678 0.902508-0.234306l5.232814-1.96122c1.197559-0.433898 2.108746-0.642169 2.690169-0.642169 0.572746 0 1.015322 0.147525 1.345085 0.512 0.312407 0.347119 0.668203 1.024 1.050034 2.030644 0.642169 1.770305 0.997966 3.132746 1.041356 4.113356 0.069424 0.989288-1.041356 1.822373-3.358373 2.464542l-5.406373 1.527322c-0.754983 0.225627-1.154169 0.520678-1.15417 0.911186 0 0.173559 0.173559 0.494644 0.538034 0.954577l3.497221 4.391051c1.024 1.353763 1.553356 2.343051 1.553356 3.011254 0 0.772339-0.893831 1.761627-2.698848 3.080678-1.562034 1.084746-2.64678 1.631458-3.245559 1.631457-0.754983 0-1.718237-0.807051-2.855051-2.490576l-3.089356-4.677424c-0.373153-0.529356-0.711593-0.815729-0.997966-0.815728s-0.607458 0.286373-0.98061 0.815728l-3.098034 4.677424c-1.11078 1.683525-2.056678 2.490576-2.846373 2.490576-0.607458 0-1.692203-0.546712-3.254237-1.631457-1.787661-1.275661-2.690169-2.282305-2.69017-3.080678 0-0.650847 0.538034-1.648814 1.596746-3.011254l3.445153-4.399729c0.347119-0.451254 0.546712-0.772339 0.546711-0.954577 0-0.373153-0.407864-0.676881-1.154169-0.902508l-5.362983-1.527322c-2.256271-0.642169-3.375729-1.440542-3.375729-2.386441 0-1.041356 0.407864-2.568678 1.214915-4.686101 0.55539-1.362441 1.293017-2.021966 2.230238-2.021967 0.624814 0 1.527322 0.208271 2.655457 0.616136z m2.325695 84.089492a17.147661 17.147661 0 0 1-17.165017 17.121627h-26.554576a17.147661 17.147661 0 0 1-17.182373-17.121627c0-9.545763 7.68-17.225763 17.182373-17.225763h26.554576a17.182373 17.182373 0 0 1 17.165017 17.225763z m15.082305-159.44895l11.958238-17.598915c16.843932-24.801627 17.789831-38.703729 15.602983-45.99322-1.770305-5.927051-6.005153-8.304814-7.055187-8.808136-69.857627-19.265085-70.491119-68.929085-70.491119-71.03783-1.891797-29.938983 13.216542-58.767186 42.548068-80.670373 27.396339-20.453966 64.399186-33.080407 104.222373-35.579661a222.850169 222.850169 0 0 1 13.771932-0.433898c76.400814 0 130.212881 39.684339 133.909695 98.755254 3.644746 58.107661-49.898305 97.731254-139.776 103.450034-3.54061 0.485966-7.697356 1.614102-9.372203 2.499254l-0.08678 0.225627-0.954576 1.041356c-31.587797 34.468881-72.23539 47.329627-73.953627 47.858983l-20.323797 6.291525z m110.557288-245.213288c-4.217492 0-8.530441 0.138847-12.843389 0.407865-36.421424 2.282305-71.497763 14.179797-96.229967 32.63783-25.166102 18.796475-38.157017 43.042712-36.568949 68.295593 0.026034 2.09139 1.136814 41.194305 60.025492 57.231187l0.616135 0.190915c1.206237 0.451254 11.845424 4.720814 16.106305 17.998102 3.453831 10.804068 1.501288 24.003254-5.822915 39.415322 13.416136-6.777492 31.405559-17.911322 46.817627-34.494915 3.575322-5.840271 12.860746-8.226712 20.341153-9.198644 63.861153-4.026576 130.264949-29.149288 126.594169-87.708204-3.176136-50.705356-51.017763-84.783729-119.044339-84.783729z m-41.515389 90.077288l2.403796 13.164475c1.457898 7.957695 1.909153 13.693831 1.319051 17.199729-1.284339 7.480407-5.961763 13.546305-14.066983 18.258441-4.894373 2.889763-10.647864 4.972475-17.269153 6.161355-11.550373 2.117424-21.295729 1.058712-29.244745-3.158779-3.879051-2.082712-6.786169-4.772881-8.721356-8.131254-1.969898-3.297627-3.557966-8.348203-4.790238-15.06495-0.494644-2.60339-1.180203-6.968407-2.091389-12.999593-0.668203-4.260881-1.136814-7.072542-1.388475-8.443661-0.55539-2.993898-1.145492-4.998508-1.796339-6.083254-0.659525-1.050034-1.822373-1.96122-3.54061-2.707525-2.655458-1.102102-4.165424-2.60339-4.512543-4.521221a4.920407 4.920407 0 0 1 1.15417-4.05261c0.98061-1.293017 2.447186-2.325695 4.347661-3.098034 3.818305-1.475254 8.426305-2.750915 13.815322-3.731525 5.944407-1.093424 10.951593-1.536 15.038915-1.379797 4.00922 0.190915 6.282847 1.770305 6.838238 4.824949a4.495186 4.495186 0 0 1-0.997967 3.931119c-0.208271 0.277695-1.214915 1.024-2.950508 2.273627a4.295593 4.295593 0 0 0-1.839729 3.176136c-0.173559 1.405831 0.026034 3.62739 0.590102 6.682033 0.590102 3.150102 1.683525 9.962305 3.280271 20.393221 0.954576 6.222102 3.471186 10.630508 7.619254 13.22522 3.358373 2.117424 7.298169 2.776949 11.836746 1.952543 2.872407-0.520678 5.380339-1.553356 7.523797-3.019933 2.152136-1.501288 3.662102-3.297627 4.555932-5.328271 0.720271-1.57939 1.102102-3.271593 1.128135-5.07661a35.935458 35.935458 0 0 0-0.737627-7.141966l-2.178169-11.86278c-1.857085-9.094508-3.080678-14.370712-3.71417-15.854644-0.633492-1.518644-2.013288-2.542644-4.148067-3.080678-2.030644-0.477288-3.453831-1.024-4.252204-1.562034a3.531932 3.531932 0 0 1-1.49261-2.343051c-0.399186-2.160814 0.59878-3.983186 3.002576-5.441084 2.386441-1.457898 6.430373-2.707525 12.114441-3.75756 5.562576-0.997966 9.68461-1.258305 12.366102-0.746305 2.681492 0.520678 4.208814 1.839729 4.616678 3.965831 0.173559 1.041356 0.112814 1.839729-0.234305 2.421152-0.329763 0.59878-1.336407 1.544678-2.959187 2.950509-1.735593 1.431864-2.60339 2.750915-2.629424 4.078644-0.052068 1.266983 0.607458 5.927051 1.995933 13.936813z m25.166101-9.259389c1.518644-0.156203 2.386441 0.833085 2.620746 2.98522l0.060746 0.685559 0.069423 1.050034c0.156203 1.431864 0.668203 2.108746 1.518645 2.013288 0.442576-0.052068 1.084746-0.694237 1.935186-1.943864 1.266983-1.787661 2.933153-3.314983 5.007186-4.512542 2.082712-1.214915 4.278237-1.909153 6.560543-2.169492 4.460475-0.46861 7.706034 0.824407 9.806102 3.879051 0.781017 1.128136 1.397153 1.683525 1.822372 1.62278 0.286373-0.017356 0.911186-0.624814 1.900475-1.805017 3.106712-3.757559 6.838237-5.866305 11.255322-6.334916 3.427797-0.364475 6.334915 0.295051 8.721356 1.943865 2.507932 1.735593 3.957153 4.555932 4.382373 8.504407 0.08678 0.841763 0.225627 2.290983 0.38183 4.321627 0.017356 0.694237 0.199593 2.776949 0.581424 6.300203 0.234305 2.230237 0.381831 3.774915 0.451254 4.686102 0.04339 0.581424 0.069424 0.98061 0.104136 1.240949a6.768814 6.768814 0 0 0 2.065356 4.286915c0.711593 0.685559 1.162847 1.154169 1.336407 1.405831 0.173559 0.234305 0.286373 0.581424 0.33844 0.997966 0.347119 3.419119-3.471186 5.553898-11.489627 6.386983-3.54061 0.390508-6.430373 0.251661-8.704-0.364475-2.256271-0.633492-3.462508-1.605424-3.610034-2.993898a2.794305 2.794305 0 0 1 0.08678-1.249627c0.121492-0.303729 0.55539-1.11078 1.301695-2.395119 0.711593-1.171525 0.728949-4.859661 0.086779-11.047051-0.390508-3.575322-0.911186-6.05722-1.562033-7.410983-0.781017-1.605424-2.030644-2.343051-3.783594-2.143457a3.566644 3.566644 0 0 0-2.247593 1.076067 3.818305 3.818305 0 0 0-1.128135 2.186848c-0.138847 0.989288 0 3.557966 0.416542 7.714712 0.55539 4.469153 0.989288 7.168 1.293017 8.113898 0.303729 0.928542 1.11078 2.186847 2.447186 3.766237a2.776949 2.776949 0 0 1 0.55539 1.475255c0.338441 3.184814-3.644746 5.198102-11.923525 6.074576-4.981153 0.512-8.374237 0.512-10.179255-0.026034a3.210847 3.210847 0 0 1-2.42983-2.915797 2.993898 2.993898 0 0 1 0.112814-1.431864c0.156203-0.269017 0.685559-0.954576 1.596745-2.013288a4.260881 4.260881 0 0 0 0.971933-1.692204c0.130169-0.520678 0.156203-1.431864 0.086779-2.742237-0.130169-2.950508-0.338441-5.901017-0.659525-8.886237-0.546712-5.232814-2.169492-7.697356-4.816271-7.402305-2.00461 0.199593-3.072 1.431864-3.210848 3.705491-0.095458 2.143458 0.069424 5.180746 0.46861 9.094509 0.329763 2.915797 0.581424 4.842305 0.798373 5.727457a8.539119 8.539119 0 0 0 1.284339 2.73356c0.763661 1.076068 1.197559 1.995932 1.258305 2.690169 0.173559 1.744271-0.902508 3.063322-3.245559 3.991865-2.577356 0.997966-5.432407 1.648814-8.591187 1.978576-4.113356 0.451254-7.159322 0.451254-9.146576 0-1.987254-0.442576-3.054644-1.379797-3.210847-2.794305a2.490576 2.490576 0 0 1 0.242983-1.414509c0.199593-0.390508 0.737627-1.032678 1.553356-1.91783a6.768814 6.768814 0 0 0 1.588068-4.755526c-0.052068-3.314983-0.260339-6.74278-0.64217-10.292067-0.277695-2.525288-0.590102-4.278237-0.954576-5.267526a4.18278 4.18278 0 0 0-1.874441-2.238915 8.877559 8.877559 0 0 1-1.683525-1.223593 2.525288 2.525288 0 0 1-0.485966-1.301695c-0.173559-1.761627 1.076068-3.323661 3.748881-4.660068 6.491119-3.141424 11.394169-4.920407 14.752542-5.293559z m82.084882-0.963255c3.002576-0.338441 5.727458 0.442576 8.157288 2.273628 2.455864 1.891797 3.861695 4.486508 4.217491 7.836203a10.587119 10.587119 0 0 1-2.51661 8.261424 10.951593 10.951593 0 0 1-7.480407 3.939796 10.968949 10.968949 0 0 1-8.122576-2.282305 10.83878 10.83878 0 0 1-4.234847-7.68c-0.338441-3.288949 0.494644-6.091932 2.507932-8.400271 1.995932-2.290983 4.486508-3.62739 7.463051-3.948475z m29.05383-3.106711c2.993898-0.303729 5.710102 0.459932 8.131254 2.290983 2.481898 1.883119 3.879051 4.486508 4.22617 7.827525 0.338441 3.11539-0.503322 5.892339-2.507932 8.270102-1.995932 2.325695-4.469153 3.644746-7.480407 3.948474a11.064407 11.064407 0 0 1-8.122576-2.290983 10.821424 10.821424 0 0 1-4.234848-7.68c-0.338441-3.297627 0.494644-6.091932 2.51661-8.400271 1.987254-2.299661 4.477831-3.610034 7.471729-3.96583zM116.831458 277.061424a56.085695 56.085695 0 1 1 0-112.180068 56.085695 56.085695 0 0 1 0 112.180068z m0.199593-25.64339a30.25139 30.25139 0 1 0 0-60.50278 30.25139 30.25139 0 0 0 0 60.50278z m534.649491-205.928136a5.293559 5.293559 0 1 1 0 10.595797h-40.196339v40.196339a5.293559 5.293559 0 0 1-10.595796 0V56.085695H560.68339a5.293559 5.293559 0 0 1 0-10.587119h40.205017V5.293559a5.293559 5.293559 0 0 1 10.587118 0v40.205017z m-563.659932 456.374238a3.826983 3.826983 0 0 1-0.017356 7.653966l-37.948746 0.017356v38.148339a3.826983 3.826983 0 1 1-7.653966 0v-38.183051L3.818305 509.48339a3.818305 3.818305 0 0 1 0.017356-7.653966l38.573559 0.017356v-38.087594a3.826983 3.826983 0 0 1 7.662644 0v38.113628z m1403.444068-193.084746a1.752949 1.752949 0 1 1-2.481898 2.481898l-17.381966-17.381966-17.390645 17.381966a1.752949 1.752949 0 0 1-2.481898-2.481898l17.381966-17.381966-17.381966-17.390644a1.752949 1.752949 0 0 1 2.481898-2.481899l17.390645 17.381966 17.381966-17.381966a1.752949 1.752949 0 1 1 2.481898 2.481899l-17.381966 17.390644z m-262.78617 99.536271c-4.469153-4.460475-8.920949-8.938305-13.407457-13.381424-0.494644-0.485966-0.459932-0.746305 0.017356-1.197559 1.093424-1.041356 2.126102-2.13478 3.210847-3.228203l0.55539 0.520678 13.546305 13.528949c0.451254 0.451254 0.407864 0.694237-0.017356 1.102101-1.076068 1.041356-2.117424 2.13478-3.228203 3.280272-0.295051-0.269017-0.494644-0.433898-0.676882-0.624814z m33.748611 25.782237l14.040949 14.066983c0.034712 0.034712 0.052068 0.078102 0.147525 0.251661-1.180203 1.162847-2.351729 2.343051-3.557966 3.471187-0.095458 0.08678-0.520678-0.034712-0.676881-0.190915-1.978576-1.935186-3.931119-3.905085-5.892339-5.857628l-7.653966-7.662644-0.529356-0.555389c0.095458-0.138847 0.164881-0.277695 0.260339-0.381831 1.041356-1.041356 2.074034-2.065356 3.098034-3.106712 0.260339-0.260339 0.459932-0.347119 0.763661-0.034712z m-1.06739-25.964474c-0.902508-0.971932-1.865763-1.900475-2.811661-2.829017-0.260339-0.260339-0.355797-0.459932-0.052068-0.763661l13.841356-13.824c0.060746-0.060746 0.138847-0.095458 0.303729-0.208271 1.171525 1.180203 2.317017 2.317017 3.436474 3.479864 0.08678 0.08678 0.052068 0.347119 0.008678 0.494644-0.034712 0.112814-0.173559 0.199593-0.260339 0.286373-4.460475 4.460475-8.920949 8.903593-13.364067 13.372746-0.433898 0.442576-0.685559 0.433898-1.102102-0.008678z m-31.674576 26.103322c0.911186 0.971932 1.865763 1.891797 2.820339 2.820339 0.260339 0.260339 0.347119 0.459932 0.043389 0.772339l-13.832678 13.815322c-0.060746 0.060746-0.147525 0.104136-0.303728 0.216949-1.180203-1.180203-2.325695-2.317017-3.445153-3.479864-0.08678-0.08678-0.052068-0.347119 0-0.503323 0.026034-0.112814 0.173559-0.190915 0.260339-0.286372 4.451797-4.451797 8.912271-8.894915 13.35539-13.364068 0.433898-0.442576 0.694237-0.433898 1.102102 0z m16.600949-43.207593c0 2.794305-0.017356 5.58861 0.008678 8.382915 0.008678 0.607458-0.173559 0.798373-0.781017 0.781017a78.032271 78.032271 0 0 0-3.931119-0.008678c-0.433898 0-0.633492-0.095458-0.633491-0.581424V382.437966c0-0.46861 0.147525-0.624814 0.607457-0.607458 1.362441 0.017356 2.716203 0.026034 4.061288 0 0.546712-0.026034 0.676881 0.173559 0.676882 0.676882-0.017356 2.837695-0.008678 5.67539-0.008678 8.513085z m-21.694916 26.259525a75.021017 75.021017 0 0 0 0 3.991864c0 0.459932-0.156203 0.607458-0.607457 0.607458-5.727458-0.017356-11.446237-0.017356-17.156339 0-0.494644 0-0.590102-0.208271-0.590102-0.642169 0.026034-1.353763 0.026034-2.707525 0-4.052611-0.008678-0.503322 0.156203-0.650847 0.650848-0.650847 2.829017 0.017356 5.666712 0.008678 8.504406 0.008678 2.811661 0 5.632 0.017356 8.443661-0.008678 0.572746 0 0.781017 0.138847 0.754983 0.746305z m60.745763-0.034712c-0.034712 1.345085-0.026034 2.698847 0 4.05261 0 0.433898-0.147525 0.572746-0.581424 0.572746h-17.147661c-0.520678 0-0.633492-0.199593-0.624813-0.668203 0.026034-1.327729 0.034712-2.664136 0-3.991865-0.017356-0.529356 0.164881-0.676881 0.685559-0.676881 2.829017 0.017356 5.666712 0.008678 8.504407 0.008678 2.820339 0 5.632 0.017356 8.443661-0.008678 0.538034 0 0.737627 0.138847 0.720271 0.711593z m-39.050847 34.451526c0 2.837695-0.017356 5.67539 0 8.504406 0.008678 0.55539-0.147525 0.737627-0.702916 0.720271a93.131932 93.131932 0 0 0-4.061288 0c-0.433898 0-0.572746-0.147525-0.572745-0.581423v-17.156339c0-0.451254 0.138847-0.624814 0.607457-0.607458 1.353763 0.017356 2.707525 0.026034 4.05261 0 0.538034-0.026034 0.694237 0.156203 0.68556 0.676882-0.026034 2.811661-0.008678 5.632-0.008678 8.443661z m253.726373 92.463728a33.436203 33.436203 0 1 1 0-66.881084 33.436203 33.436203 0 0 1 0 66.881084z m-0.026034-10.205288a23.656136 23.656136 0 1 0 0-47.312271 23.656136 23.656136 0 0 0 0 47.312271z m-416.993627-381.26644a24.280949 24.280949 0 1 1 0-48.561899 24.280949 24.280949 0 0 1 0 48.561899z m-0.260339-11.177221a13.364068 13.364068 0 1 0 0-26.710779 13.364068 13.364068 0 0 0 0 26.710779z" fill="#0076FF" p-id="4623"></path></svg>