<?xml version="1.0" standalone="no"?><!DOCTYPE svg PUBLIC "-//W3C//DTD SVG 1.1//EN" "http://www.w3.org/Graphics/SVG/1.1/DTD/svg11.dtd"><svg t="1717730522709" class="icon" viewBox="0 0 1024 1024" version="1.1" xmlns="http://www.w3.org/2000/svg" p-id="9381" xmlns:xlink="http://www.w3.org/1999/xlink" width="200" height="200"><path d="M614.4 275.114667a170.666667 170.666667 0 1 0-341.333333 0h68.266666a102.4 102.4 0 1 1 102.4 102.4H34.133333v68.266666h409.6a170.666667 170.666667 0 0 0 170.666667-170.666666z m341.333333 449.536H34.133333v68.266666h204.8v102.4h68.266667v-102.4h136.533333v102.4h68.266667v-102.4h136.533333v102.4h68.266667v-102.4h156.672l-78.165333 79.872L843.434667 921.6l136.533333-138.24a34.133333 34.133333 0 0 0 7.509333-37.546667 34.133333 34.133333 0 0 0-31.744-21.162666z m34.133334-276.48a170.666667 170.666667 0 1 0-341.333334 0h68.266667a102.4 102.4 0 1 1 102.4 102.4H34.133333v68.266666h785.066667a170.666667 170.666667 0 0 0 170.666667-170.666666z" p-id="9382"></path></svg>