<?xml version="1.0" standalone="no"?><!DOCTYPE svg PUBLIC "-//W3C//DTD SVG 1.1//EN" "http://www.w3.org/Graphics/SVG/1.1/DTD/svg11.dtd"><svg t="1714112644706" class="icon" viewBox="0 0 1181 1024" version="1.1" xmlns="http://www.w3.org/2000/svg" p-id="5493" xmlns:xlink="http://www.w3.org/1999/xlink" width="230.6640625" height="200"><path d="M1142.217134 630.165713H39.388571a39.388571 39.388571 0 0 1 0-78.777142h1102.828563a39.388571 39.388571 0 0 1 0 78.777142zM1063.439992 446.386663H118.165713a39.388571 39.388571 0 1 1 0-78.777142h945.171437a39.388571 39.388571 0 1 1 0 78.777142z m-262.659034-367.609521h-262.556192a39.388571 39.388571 0 1 1 0-78.777142h262.556192a39.388571 39.388571 0 0 1 0 78.777142z m13.112383 144.390479a39.388571 39.388571 0 0 1-39.38857 39.388571H223.167621a39.388571 39.388571 0 0 1 0-78.777142h551.33715a39.388571 39.388571 0 0 1 39.38857 39.388571z m-380.516219 722.003816h262.556191a39.388571 39.388571 0 1 1 0 78.777142H433.222858a39.388571 39.388571 0 0 1 0-78.777142z m39.38857-170.666666a39.388571 39.388571 0 0 1 39.388571-39.388571h551.182887a39.388571 39.388571 0 1 1 0 78.777141H511.948579a39.388571 39.388571 0 0 1-39.388571-39.38857z" p-id="5494"></path></svg>