<?xml version="1.0" standalone="no"?><!DOCTYPE svg PUBLIC "-//W3C//DTD SVG 1.1//EN" "http://www.w3.org/Graphics/SVG/1.1/DTD/svg11.dtd"><svg t="1712039906285" class="icon" viewBox="0 0 1024 1024" version="1.1" xmlns="http://www.w3.org/2000/svg" p-id="5366" xmlns:xlink="http://www.w3.org/1999/xlink" width="200" height="200"><path d="M679.68 266.24h104.789333a20.736 20.736 0 0 0 20.906667-20.48c0-11.306667-9.386667-20.48-20.906667-20.48h-104.832a20.736 20.736 0 0 0-20.906666 20.48c0 11.306667 9.386667 20.48 20.906666 20.48z m0-122.88h167.68a20.736 20.736 0 0 0 20.906667-20.48c0-11.306667-9.386667-20.48-20.906667-20.48h-167.68a20.736 20.736 0 0 0-20.992 20.48c0 11.306667 9.386667 20.48 20.949333 20.48z m227.712 194.56a21.034667 21.034667 0 0 0-18.133333-10.24h-209.621334a21.034667 21.034667 0 0 0-18.133333 10.24 20.096 20.096 0 0 0 0 20.48c3.754667 6.357333 10.666667 10.24 18.133333 10.24h209.621334a21.034667 21.034667 0 0 0 18.133333-10.24 20.053333 20.053333 0 0 0 0-20.48z m-311.552 179.882667V194.56c0-107.434667-89.173333-194.56-199.125333-194.56S197.632 87.125333 197.632 194.56v342.186667a282.368 282.368 0 0 0-83.84 200.533333c0 76.032 30.890667 148.992 85.930667 202.752S329.386667 1024 407.210667 1024c123.264-0.085333 233.344-75.434667 275.498666-188.586667 42.197333-113.237333 7.466667-240.085333-86.869333-317.610666z m33.962667 277.717333c-25.728 94.08-110.421333 161.365333-209.92 166.826667-99.498667 5.376-191.317333-52.266667-227.584-143.018667-36.266667-90.709333-8.746667-193.92 68.181333-255.829333V194.56c0-73.514667 61.013333-133.12 136.234667-133.12s136.234667 59.605333 136.234666 133.12v354.133333c83.498667 53.12 122.581333 152.746667 96.853334 246.826667z m-158.805334-186.88v-218.88c0-34.133333-28.586667-62.08-63.573333-62.08-34.901333 0-63.488 27.946667-63.488 62.08v221.44c-61.44 30.250667-93.312 98.048-76.714667 163.285333 16.64 65.28 77.226667 110.592 146.005334 109.226667 68.821333-1.408 127.445333-49.152 141.269333-114.986667 13.866667-65.877333-20.821333-132.352-83.498667-160.085333z m376.32-158.08h-167.68a21.034667 21.034667 0 0 0-19.328 12.672 20.181333 20.181333 0 0 0 4.522667 22.314667c3.925333 3.84 9.258667 5.973333 14.805333 5.973333h167.68a21.034667 21.034667 0 0 0 18.176-10.24 20.053333 20.053333 0 0 0 0-20.48 21.034667 21.034667 0 0 0-18.176-10.24z" p-id="5367"></path></svg>